<?xml version="1.0" encoding="utf-8"?>
<!-- Generator: Adobe Illustrator 15.0.0, SVG Export Plug-In . SVG Version: 6.00 Build 0)  -->
<!DOCTYPE svg PUBLIC "-//W3C//DTD SVG 1.1//EN" "http://www.w3.org/Graphics/SVG/1.1/DTD/svg11.dtd">
<svg version="1.1" id="FINAL_ART" xmlns="http://www.w3.org/2000/svg" xmlns:xlink="http://www.w3.org/1999/xlink" x="0px" y="0px"
	 width="575px" height="225px" viewBox="105 195 575 225" enable-background="new 105 195 575 225" xml:space="preserve">
<g id="full_color">
	<g id="tree">
		<g id="branches">
			<path fill="#6154A4" d="M563.944,386.387l-1.802-150.629c0-2.613-7.661-2.613-7.661,0l-1.799,150.629
				C552.683,389,563.944,389,563.944,386.387z"/>
			<path fill="#6154A4" d="M558.313,324.676h16.277c5.124,0,8.678-1.18,10.661-3.523c1.98-2.354,2.974-8.449,2.974-14.256
				c0-4.459-0.252-8.288-0.753-11.481c-0.501-3.19-1.271-6.876-2.312-11.048c-0.281-1.011-0.261-1.834,0.062-2.484
				c0.319-0.647,0.82-0.97,1.5-0.97h4.805c1.002,0,1.743,0.694,2.224,2.086c0.841,2.253,1.711,5.602,2.61,10.04
				c0.902,4.438,1.354,9.062,1.354,13.857c0,19.148-7.708,28.719-23.124,28.719h-16.277V324.676z"/>
			<path fill="#6154A4" d="M555.264,315.674h-16.277c-15.416,0-23.124-7.986-23.124-23.965c0-4.002,0.451-7.857,1.354-11.561
				c0.899-3.703,1.77-6.498,2.61-8.379c0.48-1.16,1.222-1.74,2.224-1.74h4.805c0.68,0,1.181,0.27,1.5,0.809
				c0.322,0.545,0.343,1.23,0.062,2.074c-1.04,3.48-1.811,6.557-2.312,9.217c-0.501,2.666-0.753,5.859-0.753,9.58
				c0,4.846,0.993,8.25,2.974,10.213c1.983,1.957,5.537,2.941,10.661,2.941h16.277V315.674z"/>
			<path fill="#6154A4" d="M518.862,300.533h-19.277c-15.416,0-23.124-7.986-23.124-23.965c0-4.002,0.451-7.857,1.354-11.561
				c0.899-3.703,1.77-6.498,2.61-8.379c0.48-1.16,1.222-1.74,2.224-1.74h4.805c0.68,0,1.181,0.27,1.5,0.809
				c0.322,0.545,0.343,1.23,0.062,2.074c-1.04,3.48-1.811,6.557-2.312,9.217c-0.501,2.666-0.753,5.859-0.753,9.58
				c0,4.846,0.993,8.25,2.974,10.213c1.983,1.957,5.537,2.941,10.661,2.941h19.277V300.533z"/>
			<path fill="#6154A4" d="M618.688,295.239h16.277c5.124,0,8.678-0.565,10.661-1.688c1.98-1.128,2.974-3.085,2.974-5.868
				c0-2.136-0.252-3.97-0.753-5.502c-0.501-1.526-1.271-3.293-2.312-5.294c-0.281-0.483-0.261-0.879,0.062-1.189
				c0.319-0.311,0.82-0.466,1.5-0.466h4.805c1.002,0,1.743,0.334,2.224,0.999c0.841,1.081,1.711,2.687,2.61,4.813
				c0.902,2.127,1.354,4.342,1.354,6.639c0,12.85-7.708,18.741-23.124,18.741h-16.277V295.239z"/>
			<path fill="#6154A4" d="M590.013,300.923h16.277c5.124,0,8.678-1.57,10.661-4.69c1.98-3.129,2.974-14.558,2.974-22.283
				c0-5.933-0.252-11.024-0.753-15.275c-0.501-4.242-1.271-9.146-2.312-14.695c-0.281-1.345-0.261-2.438,0.062-3.308
				c0.319-0.858,0.82-1.289,1.5-1.289h4.805c1.002,0,1.743,0.926,2.224,2.774c0.841,3,1.711,7.456,2.61,13.359
				c0.902,5.906,1.354,12.053,1.354,18.434c0,30.258-4.441,38.211-23.124,38.211h-16.277V300.923z"/>
		</g>
		<g id="buds">
			<path fill="#EC297B" d="M590.016,286.86c-11.221,0-20.35-9.126-20.35-20.344c0-11.221,9.129-20.347,20.35-20.347
				c11.215,0,20.344,9.126,20.344,20.347C610.359,277.734,601.23,286.86,590.016,286.86L590.016,286.86z M590.016,255.633
				c-6,0-10.887,4.881-10.887,10.884c0,5.997,4.887,10.881,10.887,10.881s10.875-4.884,10.875-10.881
				C600.891,260.514,596.016,255.633,590.016,255.633L590.016,255.633z"/>
			<path fill="#EC297B" d="M558.311,240.489c-11.221,0-20.35-9.129-20.35-20.347s9.129-20.344,20.35-20.344
				c11.215,0,20.344,9.126,20.344,20.344S569.525,240.489,558.311,240.489L558.311,240.489z M558.311,209.262
				c-6,0-10.881,4.881-10.881,10.881s4.881,10.884,10.881,10.884s10.881-4.884,10.881-10.884S564.311,209.262,558.311,209.262
				L558.311,209.262z"/>
			<path fill="#EC297B" d="M485.209,263.203c-11.221,0-20.344-9.129-20.344-20.347s9.123-20.344,20.344-20.344
				c11.215,0,20.344,9.126,20.344,20.344S496.424,263.203,485.209,263.203L485.209,263.203z M485.209,231.976
				c-6,0-10.881,4.881-10.881,10.881c0,6.003,4.881,10.884,10.881,10.884c5.994,0,10.881-4.881,10.881-10.884
				C496.09,236.856,491.203,231.976,485.209,231.976L485.209,231.976z"/>
			<path fill="#EC297B" d="M526.846,278.347c-11.221,0-20.35-9.129-20.35-20.347c0-11.221,9.129-20.347,20.35-20.347
				s20.344,9.126,20.344,20.347C547.189,269.218,538.066,278.347,526.846,278.347L526.846,278.347z M526.846,247.119
				c-6,0-10.881,4.878-10.881,10.881c0,6,4.881,10.881,10.881,10.881S537.727,264,537.727,258
				C537.727,251.997,532.846,247.119,526.846,247.119L526.846,247.119z"/>
			<path fill="#EC297B" d="M651.996,282.604c-11.221,0-20.344-9.126-20.344-20.347c0-11.218,9.123-20.347,20.344-20.347
				s20.344,9.129,20.344,20.347C672.34,273.478,663.217,282.604,651.996,282.604L651.996,282.604z M651.996,251.376
				c-6,0-10.881,4.878-10.881,10.881c0,6,4.881,10.881,10.881,10.881s10.881-4.881,10.881-10.881
				C662.877,256.254,657.996,251.376,651.996,251.376L651.996,251.376z"/>
			<path fill="#EC297B" d="M620.297,245.224c-11.221,0-20.35-9.126-20.35-20.347c0-11.218,9.129-20.347,20.35-20.347
				c11.215,0,20.344,9.129,20.344,20.347C640.641,236.098,631.512,245.224,620.297,245.224L620.297,245.224z M620.297,213.996
				c-6,0-10.887,4.881-10.887,10.881s4.887,10.881,10.887,10.881s10.881-4.881,10.881-10.881S626.297,213.996,620.297,213.996
				L620.297,213.996z"/>
		</g>
	</g>
	<g id="acropora">
		<path fill="#0690CF" d="M169.208,383.432c0,1.523-0.621,2.424-1.862,2.703c-3.204,0.922-6.437,1.621-9.699,2.102
			c-3.264,0.48-6.958,0.721-11.081,0.721c-9.57,0-16.447-1.611-20.63-4.834c-4.185-3.223-6.276-8.379-6.276-15.465v-1.082
			c0-4.604,0.97-8.367,2.913-11.291c1.941-2.922,5.084-5.094,9.429-6.516c4.344-1.422,10.1-2.133,17.267-2.133h9.129v-4.924
			c0-5.125-0.981-8.68-2.943-10.66c-1.962-1.982-5.366-2.973-10.21-2.973c-3.724,0-6.917,0.25-9.579,0.75
			c-2.664,0.5-5.736,1.271-9.219,2.312c-0.841,0.279-1.532,0.26-2.072-0.061c-0.541-0.32-0.811-0.82-0.811-1.502v-4.805
			c0-1,0.58-1.74,1.742-2.221c1.881-0.842,4.674-1.713,8.378-2.613c3.703-0.9,7.557-1.352,11.562-1.352
			c15.976,0,23.963,7.709,23.963,23.123V383.432z M158.398,379.408v-23.902h-9.129c-3.884,0-6.987,0.209-9.309,0.629
			c-2.323,0.422-4.174,1.111-5.556,2.072c-1.381,0.961-2.363,2.174-2.942,3.635c-0.581,1.461-0.871,3.332-0.871,5.615v1.08
			c0,2.883,0.45,5.195,1.352,6.938c0.9,1.742,2.522,3.014,4.864,3.814c2.343,0.801,5.595,1.201,9.76,1.201
			c1.641,0,3.223-0.051,4.745-0.15c1.521-0.1,2.892-0.23,4.114-0.391C156.646,379.789,157.637,379.609,158.398,379.408z"/>
		<path fill="#0690CF" d="M204.03,388.957c-4.165,0-7.918-0.689-11.261-2.072c-3.344-1.381-6.126-3.371-8.349-5.975
			c-2.222-2.604-3.874-5.705-4.955-9.309s-1.622-7.768-1.622-12.492V349.5c0-6.207,0.97-11.541,2.913-16.006
			c1.941-4.465,4.884-7.898,8.828-10.301c3.943-2.402,8.758-3.604,14.444-3.604c3.363,0,6.526,0.41,9.489,1.23
			c2.962,0.822,5.165,1.652,6.606,2.494c0.721,0.4,1.191,0.75,1.411,1.051c0.22,0.299,0.331,0.811,0.331,1.531v4.385
			c0,1.721-0.941,2.262-2.823,1.621c-5.326-1.883-10.33-2.822-15.015-2.822c-10.25,0-15.375,6.807-15.375,20.42v9.609
			c0,6.766,1.311,11.861,3.934,15.283c2.622,3.424,6.436,5.137,11.441,5.137c4.685,0,9.689-0.941,15.015-2.824
			c1.881-0.68,2.823-0.158,2.823,1.562v4.443c0,0.721-0.12,1.242-0.36,1.562s-0.701,0.66-1.381,1.021
			c-1.562,0.84-3.794,1.66-6.696,2.461C210.526,388.557,207.394,388.957,204.03,388.957z"/>
		<path fill="#0690CF" d="M255.489,319.471c3.243,0,6.025,0.199,8.348,0.6c0.88,0.16,1.451,0.432,1.712,0.811
			c0.26,0.381,0.39,0.971,0.39,1.771v4.445c0,0.84-0.161,1.41-0.48,1.711c-0.321,0.301-0.941,0.432-1.862,0.391
			c-2.803-0.16-5.506-0.24-8.108-0.24c-5.125,0-10.01,0.621-14.654,1.861v54.834c0,0.641-0.25,1.211-0.75,1.711
			c-0.501,0.502-1.072,0.752-1.712,0.752h-6.006c-0.601,0-1.141-0.24-1.622-0.721s-0.721-1.061-0.721-1.742v-59.518
			c0-1.521,0.74-2.502,2.222-2.943c4.685-1.32,8.878-2.271,12.582-2.854C248.531,319.76,252.085,319.471,255.489,319.471z"/>
		<path fill="#0690CF" d="M321.961,358.988c0,9.209-2.353,16.506-7.057,21.891c-4.705,5.387-11.481,8.078-20.33,8.078
			c-8.809,0-15.565-2.691-20.27-8.078c-4.705-5.385-7.057-12.682-7.057-21.891v-9.369c0-9.248,2.352-16.566,7.057-21.951
			c4.705-5.385,11.461-8.078,20.27-8.078c8.848,0,15.625,2.693,20.33,8.078c4.705,5.385,7.057,12.703,7.057,21.951V358.988z
			 M311.151,358.988v-9.369c0-4.283-0.591-7.957-1.772-11.021c-1.181-3.062-3.003-5.414-5.465-7.057
			c-2.463-1.641-5.576-2.461-9.339-2.461c-5.566,0-9.71,1.791-12.432,5.375c-2.723,3.584-4.084,8.639-4.084,15.164v9.369
			c0,13.693,5.505,20.541,16.516,20.541c5.565,0,9.719-1.781,12.462-5.346C309.779,370.619,311.151,365.555,311.151,358.988z"/>
		<path fill="#0690CF" d="M382.609,358.869c0,9.729-2.263,17.176-6.787,22.342c-4.525,5.164-11.211,7.746-20.06,7.746
			c-4.525,0-9.309-0.441-14.354-1.32v22.221c0,0.641-0.231,1.191-0.691,1.652c-0.46,0.459-1.011,0.691-1.651,0.691h-6.246
			c-0.681,0-1.222-0.221-1.622-0.662c-0.401-0.441-0.601-1-0.601-1.682v-84.621c0-0.842,0.18-1.463,0.541-1.863
			c0.36-0.398,1.041-0.721,2.042-0.961c2.042-0.52,4.394-1,7.057-1.441c2.663-0.439,5.285-0.779,7.868-1.02
			c2.582-0.24,5.135-0.361,7.657-0.361c5.965,0,10.95,1.23,14.955,3.693c4.003,2.463,6.986,5.977,8.949,10.541
			c1.961,4.564,2.943,9.949,2.943,16.156V358.869z M371.798,358.869v-8.889c0-4.484-0.501-8.289-1.501-11.412
			c-1.001-3.123-2.693-5.545-5.075-7.268c-2.382-1.721-5.536-2.582-9.459-2.582c-5.005,0-9.79,0.4-14.354,1.201v48.707
			c4.324,0.842,9.108,1.262,14.354,1.262c5.766,0,9.88-1.762,12.342-5.285C370.567,371.08,371.798,365.836,371.798,358.869z"/>
		<path fill="#0690CF" d="M444.097,358.988c0,9.209-2.353,16.506-7.057,21.891c-4.705,5.387-11.481,8.078-20.33,8.078
			c-8.809,0-15.565-2.691-20.27-8.078c-4.706-5.385-7.057-12.682-7.057-21.891v-9.369c0-9.248,2.352-16.566,7.057-21.951
			c4.704-5.385,11.461-8.078,20.27-8.078c8.849,0,15.625,2.693,20.33,8.078c4.704,5.385,7.057,12.703,7.057,21.951V358.988z
			 M433.286,358.988v-9.369c0-4.283-0.591-7.957-1.771-11.021c-1.182-3.062-3.003-5.414-5.466-7.057
			c-2.462-1.641-5.576-2.461-9.339-2.461c-5.565,0-9.71,1.791-12.433,5.375s-4.084,8.639-4.084,15.164v9.369
			c0,13.693,5.505,20.541,16.517,20.541c5.564,0,9.719-1.781,12.462-5.346C431.914,370.619,433.286,365.555,433.286,358.988z"/>
		<path fill="#0690CF" d="M478.197,319.471c3.244,0,6.026,0.199,8.349,0.6c0.88,0.16,1.451,0.432,1.712,0.811
			c0.26,0.381,0.391,0.971,0.391,1.771v4.445c0,0.84-0.161,1.41-0.48,1.711c-0.321,0.301-0.941,0.432-1.862,0.391
			c-2.803-0.16-5.506-0.24-8.108-0.24c-5.125,0-10.01,0.621-14.654,1.861v54.834c0,0.641-0.25,1.211-0.75,1.711
			c-0.501,0.502-1.072,0.752-1.712,0.752h-6.006c-0.601,0-1.142-0.24-1.622-0.721s-0.721-1.061-0.721-1.742v-59.518
			c0-1.521,0.741-2.502,2.223-2.943c4.685-1.32,8.878-2.271,12.582-2.854C471.24,319.76,474.794,319.471,478.197,319.471z"/>
		<path fill="#0690CF" d="M539.145,383.432c0,1.523-0.621,2.424-1.861,2.703c-3.204,0.922-6.437,1.621-9.699,2.102
			c-3.264,0.48-6.958,0.721-11.081,0.721c-9.57,0-16.446-1.611-20.63-4.834c-4.185-3.223-6.276-8.379-6.276-15.465v-1.082
			c0-4.604,0.971-8.367,2.913-11.291c1.941-2.922,5.084-5.094,9.429-6.516c4.344-1.422,10.1-2.133,17.267-2.133h9.129v-4.924
			c0-5.125-0.981-8.68-2.942-10.66c-1.962-1.982-5.366-2.973-10.21-2.973c-3.724,0-6.917,0.25-9.579,0.75
			c-2.663,0.5-5.735,1.271-9.22,2.312c-0.84,0.279-1.531,0.26-2.071-0.061c-0.541-0.32-0.812-0.82-0.812-1.502v-4.805
			c0-1,0.58-1.74,1.742-2.221c1.882-0.842,4.674-1.713,8.378-2.613c3.703-0.9,7.558-1.352,11.562-1.352
			c15.976,0,23.963,7.709,23.963,23.123V383.432z M528.334,379.408v-23.902h-9.129c-3.884,0-6.987,0.209-9.309,0.629
			c-2.322,0.422-4.174,1.111-5.556,2.072c-1.381,0.961-2.362,2.174-2.942,3.635c-0.581,1.461-0.871,3.332-0.871,5.615v1.08
			c0,2.883,0.45,5.195,1.352,6.938c0.9,1.742,2.522,3.014,4.864,3.814c2.343,0.801,5.595,1.201,9.76,1.201
			c1.642,0,3.223-0.051,4.745-0.15c1.521-0.1,2.892-0.23,4.113-0.391C526.582,379.789,527.573,379.609,528.334,379.408z"/>
	</g>
</g>
</svg>
